<svg width="79" height="28" viewBox="0 0 79 28" fill="none" xmlns="http://www.w3.org/2000/svg">
<rect width="79" height="28" rx="5" fill="#AAB6F7"/>
<path d="M14.9213 13.8707V14.4707C14.9213 15.2494 14.7426 15.8627 14.3853 16.3107C14.028 16.7534 13.516 16.9747 12.8493 16.9747C12.1773 16.9747 11.6626 16.7534 11.3053 16.3107C10.9533 15.8627 10.7773 15.2494 10.7773 14.4707V13.8707C10.7773 13.0974 10.9533 12.4894 11.3053 12.0467C11.6626 11.5987 12.1773 11.3747 12.8493 11.3747C13.516 11.3747 14.028 11.5987 14.3853 12.0467C14.7426 12.4894 14.9213 13.0974 14.9213 13.8707ZM14.1613 13.4707C14.1613 12.8041 14.0493 12.3321 13.8253 12.0547C13.6066 11.7721 13.2813 11.6307 12.8493 11.6307C12.4173 11.6307 12.0893 11.7721 11.8653 12.0547C11.6466 12.3321 11.5373 12.8041 11.5373 13.4707V14.8707C11.5373 15.5374 11.6466 16.0121 11.8653 16.2947C12.0893 16.5774 12.4173 16.7187 12.8493 16.7187C13.2813 16.7187 13.6066 16.5774 13.8253 16.2947C14.0493 16.0121 14.1613 15.5374 14.1613 14.8707V13.4707ZM20.2654 16.6867V16.8947H18.3774V16.6867L18.8174 16.6387C18.9028 16.6281 18.9534 16.6067 18.9694 16.5747C18.9854 16.5427 18.9934 16.4334 18.9934 16.2467V14.2547C18.9934 13.8601 18.9294 13.5827 18.8014 13.4227C18.6734 13.2574 18.4894 13.1747 18.2494 13.1747C18.0734 13.1747 17.8788 13.2281 17.6654 13.3347C17.4521 13.4414 17.2521 13.6494 17.0654 13.9587V16.2467C17.0654 16.4334 17.0734 16.5427 17.0894 16.5747C17.1054 16.6067 17.1561 16.6281 17.2414 16.6387L17.6814 16.6867V16.8947H15.7934V16.6867L16.2334 16.6387C16.3188 16.6281 16.3694 16.6067 16.3854 16.5747C16.4014 16.5427 16.4094 16.4334 16.4094 16.2467V13.5827C16.4094 13.3961 16.4014 13.2867 16.3854 13.2547C16.3694 13.2227 16.3188 13.2014 16.2334 13.1907L15.7934 13.1507V12.9347H17.0254V13.5827C17.2174 13.3267 17.4334 13.1427 17.6734 13.0307C17.9188 12.9134 18.1641 12.8547 18.4094 12.8547C18.8041 12.8547 19.1081 12.9774 19.3214 13.2227C19.5401 13.4627 19.6494 13.8041 19.6494 14.2467V16.2467C19.6494 16.4334 19.6574 16.5427 19.6734 16.5747C19.6894 16.6067 19.7401 16.6281 19.8254 16.6387L20.2654 16.6867ZM24.1389 15.9827C24.0429 16.3454 23.8616 16.6014 23.5949 16.7507C23.3336 16.9001 23.0429 16.9747 22.7229 16.9747C22.1309 16.9747 21.6883 16.7961 21.3949 16.4387C21.1016 16.0761 20.9549 15.5934 20.9549 14.9907V14.8307C20.9549 14.2334 21.0963 13.7561 21.3789 13.3987C21.6616 13.0361 22.0723 12.8547 22.6109 12.8547C22.8989 12.8547 23.1603 12.9134 23.3949 13.0307C23.6349 13.1481 23.8243 13.3214 23.9629 13.5507C24.1069 13.7801 24.1789 14.0654 24.1789 14.4067C24.1789 14.5667 24.1629 14.7347 24.1309 14.9107H21.6749V15.1507C21.6749 15.7107 21.7603 16.1134 21.9309 16.3587C22.1069 16.5987 22.3896 16.7187 22.7789 16.7187C23.0243 16.7187 23.2269 16.6547 23.3869 16.5267C23.5523 16.3987 23.6616 16.1774 23.7149 15.8627L24.1389 15.9827ZM22.6109 13.1107C22.2963 13.1107 22.0616 13.2307 21.9069 13.4707C21.7523 13.7107 21.6749 14.1054 21.6749 14.6547H23.4749V14.6307C23.4856 14.5614 23.4936 14.4947 23.4989 14.4307C23.5043 14.3614 23.5069 14.3001 23.5069 14.2467C23.5069 13.8467 23.4243 13.5587 23.2589 13.3827C23.0936 13.2014 22.8776 13.1107 22.6109 13.1107ZM32.9546 16.6867V16.8947H31.0266V16.6867L31.4666 16.6387C31.5519 16.6281 31.6026 16.6067 31.6186 16.5747C31.6346 16.5374 31.6426 16.4281 31.6426 16.2467V11.9107L29.9786 16.2547H29.4346L27.7626 11.9107V16.2467C27.7626 16.4281 27.7706 16.5374 27.7866 16.5747C27.8026 16.6067 27.8532 16.6281 27.9386 16.6387L28.3786 16.6867V16.8947H26.8506V16.6867L27.2906 16.6387C27.3759 16.6281 27.4266 16.6067 27.4426 16.5747C27.4586 16.5374 27.4666 16.4281 27.4666 16.2467V12.1027C27.4666 11.9214 27.4586 11.8147 27.4426 11.7827C27.4266 11.7454 27.3759 11.7214 27.2906 11.7107L26.8506 11.6707V11.4547H28.3146L29.9226 15.6547L31.5306 11.4547H32.9546V11.6707L32.5146 11.7107C32.4292 11.7214 32.3786 11.7454 32.3626 11.7827C32.3466 11.8147 32.3386 11.9214 32.3386 12.1027V16.2467C32.3386 16.4281 32.3466 16.5374 32.3626 16.5747C32.3786 16.6067 32.4292 16.6281 32.5146 16.6387L32.9546 16.6867ZM37.0374 15.9827C36.9414 16.3454 36.76 16.6014 36.4934 16.7507C36.232 16.9001 35.9414 16.9747 35.6214 16.9747C35.0294 16.9747 34.5867 16.7961 34.2934 16.4387C34 16.0761 33.8534 15.5934 33.8534 14.9907V14.8307C33.8534 14.2334 33.9947 13.7561 34.2774 13.3987C34.56 13.0361 34.9707 12.8547 35.5094 12.8547C35.7974 12.8547 36.0587 12.9134 36.2934 13.0307C36.5334 13.1481 36.7227 13.3214 36.8614 13.5507C37.0054 13.7801 37.0774 14.0654 37.0774 14.4067C37.0774 14.5667 37.0614 14.7347 37.0294 14.9107H34.5734V15.1507C34.5734 15.7107 34.6587 16.1134 34.8294 16.3587C35.0054 16.5987 35.288 16.7187 35.6774 16.7187C35.9227 16.7187 36.1254 16.6547 36.2854 16.5267C36.4507 16.3987 36.56 16.1774 36.6134 15.8627L37.0374 15.9827ZM35.5094 13.1107C35.1947 13.1107 34.96 13.2307 34.8054 13.4707C34.6507 13.7107 34.5734 14.1054 34.5734 14.6547H36.3734V14.6307C36.384 14.5614 36.392 14.4947 36.3974 14.4307C36.4027 14.3614 36.4054 14.3001 36.4054 14.2467C36.4054 13.8467 36.3227 13.5587 36.1574 13.3827C35.992 13.2014 35.776 13.1107 35.5094 13.1107ZM41.9685 16.6947V16.8947H40.7365V16.2627C40.5712 16.5081 40.3872 16.6894 40.1845 16.8067C39.9872 16.9187 39.7658 16.9747 39.5205 16.9747C39.0618 16.9747 38.7045 16.8041 38.4485 16.4627C38.1978 16.1161 38.0725 15.6281 38.0725 14.9987V14.8387C38.0725 14.2361 38.2192 13.7561 38.5125 13.3987C38.8112 13.0361 39.2192 12.8547 39.7365 12.8547C40.1152 12.8547 40.4352 12.9721 40.6965 13.2067V11.6227C40.6965 11.4361 40.6885 11.3267 40.6725 11.2947C40.6565 11.2627 40.6058 11.2414 40.5205 11.2307L40.0805 11.1907V10.9747H41.3525V16.2467C41.3525 16.4334 41.3605 16.5427 41.3765 16.5747C41.3925 16.6067 41.4432 16.6281 41.5285 16.6387L41.9685 16.6947ZM38.7925 15.2387C38.7925 15.7401 38.8645 16.1081 39.0085 16.3427C39.1578 16.5774 39.3632 16.6947 39.6245 16.6947C39.7952 16.6947 39.9712 16.6414 40.1525 16.5347C40.3338 16.4281 40.5152 16.2121 40.6965 15.8867V13.5987C40.4618 13.2841 40.1552 13.1267 39.7765 13.1267C39.4352 13.1267 39.1845 13.2574 39.0245 13.5187C38.8698 13.7801 38.7925 14.1401 38.7925 14.5987V15.2387ZM43.4091 12.0387C43.2811 12.0387 43.1744 11.9987 43.0891 11.9187C43.0091 11.8334 42.9691 11.7241 42.9691 11.5907C42.9691 11.4627 43.0091 11.3587 43.0891 11.2787C43.1744 11.1987 43.2811 11.1587 43.4091 11.1587C43.5371 11.1587 43.6411 11.1987 43.7211 11.2787C43.8064 11.3587 43.8491 11.4627 43.8491 11.5907C43.8491 11.7241 43.8064 11.8334 43.7211 11.9187C43.6411 11.9987 43.5371 12.0387 43.4091 12.0387ZM42.4731 13.1507V12.9347H43.7451V16.2467C43.7451 16.4334 43.7531 16.5427 43.7691 16.5747C43.7851 16.6067 43.8358 16.6281 43.9211 16.6387L44.3611 16.6867V16.8947H42.4731V16.6867L42.9131 16.6387C42.9984 16.6281 43.0491 16.6067 43.0651 16.5747C43.0811 16.5427 43.0891 16.4334 43.0891 16.2467V13.5827C43.0891 13.3961 43.0811 13.2867 43.0651 13.2547C43.0491 13.2227 42.9984 13.2014 42.9131 13.1907L42.4731 13.1507ZM46.7357 13.1107C46.4424 13.1107 46.2131 13.2334 46.0477 13.4787C45.8877 13.7187 45.8077 14.1161 45.8077 14.6707V15.1507C45.8077 15.7107 45.8877 16.1134 46.0477 16.3587C46.2131 16.5987 46.4797 16.7187 46.8477 16.7187C47.0984 16.7187 47.3011 16.6547 47.4557 16.5267C47.6104 16.3987 47.7144 16.1774 47.7677 15.8627L48.1917 15.9827C48.0957 16.3454 47.9197 16.6014 47.6637 16.7507C47.4077 16.9001 47.1224 16.9747 46.8077 16.9747C46.2317 16.9747 45.7997 16.7961 45.5117 16.4387C45.2291 16.0761 45.0877 15.5934 45.0877 14.9907V14.8307C45.0877 14.2334 45.2291 13.7561 45.5117 13.3987C45.7944 13.0361 46.2024 12.8547 46.7357 12.8547C47.0771 12.8547 47.3597 12.9214 47.5837 13.0547C47.8131 13.1881 47.9757 13.3694 48.0717 13.5987C48.1677 13.8227 48.1944 14.0707 48.1517 14.3427L47.5197 14.4387C47.5784 14.0121 47.5384 13.6841 47.3997 13.4547C47.2664 13.2254 47.0451 13.1107 46.7357 13.1107ZM52.1754 16.9507C51.7594 16.9507 51.514 16.7587 51.4394 16.3747C51.2527 16.5881 51.0474 16.7427 50.8234 16.8387C50.5994 16.9294 50.378 16.9747 50.1594 16.9747C49.786 16.9747 49.5114 16.8707 49.3354 16.6627C49.1594 16.4547 49.0714 16.2041 49.0714 15.9107C49.0714 15.5961 49.178 15.3481 49.3914 15.1667C49.61 14.9801 49.986 14.8867 50.5194 14.8867H51.4234V14.2387C51.4234 13.8121 51.3487 13.5187 51.1994 13.3587C51.0554 13.1934 50.858 13.1107 50.6074 13.1107C50.4474 13.1107 50.3034 13.1427 50.1754 13.2067C50.0474 13.2707 49.954 13.3881 49.8954 13.5587C49.842 13.7241 49.8367 13.9667 49.8794 14.2867L49.2474 14.1907C49.2207 13.9401 49.2527 13.7161 49.3434 13.5187C49.4394 13.3161 49.594 13.1561 49.8074 13.0387C50.026 12.9161 50.298 12.8547 50.6234 12.8547C51.0127 12.8547 51.3114 12.9214 51.5194 13.0547C51.7274 13.1827 51.8714 13.3507 51.9514 13.5587C52.0367 13.7667 52.0794 13.9934 52.0794 14.2387V16.0387C52.0794 16.3107 52.1087 16.4814 52.1674 16.5507C52.2314 16.6201 52.3007 16.6547 52.3754 16.6547C52.4234 16.6547 52.474 16.6441 52.5274 16.6227C52.5807 16.5961 52.6394 16.5561 52.7034 16.5027L52.8474 16.7027C52.7674 16.7721 52.6714 16.8307 52.5594 16.8787C52.4527 16.9267 52.3247 16.9507 52.1754 16.9507ZM50.3834 16.6387C50.5327 16.6387 50.6927 16.5987 50.8634 16.5187C51.0394 16.4334 51.226 16.2654 51.4234 16.0147V15.1427H50.6074C50.3087 15.1427 50.09 15.2041 49.9514 15.3267C49.818 15.4441 49.7514 15.6281 49.7514 15.8787C49.7514 16.1187 49.802 16.3054 49.9034 16.4387C50.01 16.5721 50.17 16.6387 50.3834 16.6387ZM53.1437 11.1907V10.9747H54.4157V16.2467C54.4157 16.4334 54.4237 16.5427 54.4397 16.5747C54.4557 16.6067 54.5063 16.6281 54.5917 16.6387L55.0317 16.6867V16.8947H53.1437V16.6867L53.5837 16.6387C53.669 16.6281 53.7197 16.6067 53.7357 16.5747C53.7517 16.5427 53.7597 16.4334 53.7597 16.2467V11.6227C53.7597 11.4361 53.7517 11.3267 53.7357 11.2947C53.7197 11.2627 53.669 11.2414 53.5837 11.2307L53.1437 11.1907Z" fill="white"/>
<path d="M72.435 15.6977H68.6841V19.0465H64.9333V15.6977H61.1825V12.3488H64.9333V9H68.6841V12.3488H72.435" fill="white"/>
</svg>
